<svg xmlns="http://www.w3.org/2000/svg" width="977" height="656" viewBox="0 0 977 656" fill="none"><g clip-path="url(#clip0_4955_105)"><path d="M61.5698 280.04L47.5098 172.89H69.2398L71.4098 280.04H61.5698Z" fill="#E64D3C"></path><path d="M83.3398 402.49L59.5098 172.89H116.93V402.49H83.3398Z" fill="#E64D3C"></path><path d="M91.2402 402.49L69.2402 173.51H150.82V402.49H91.2402Z" fill="#C1322D"></path><path d="M114.48 447.76V172.98H488.37V437.85L555.24 641.95H115.83L114.48 447.76Z" fill="black"></path><path d="M114.48 187.62C114.48 84 198.48 0 302.1 0C405.72 0 489.72 84 489.72 187.62H114.48Z" fill="black"></path><path d="M190.609 367.12C190.609 376.9 192.579 386.23 196.119 394.71L488.369 296.4H260.579C221.929 296.4 190.609 328.07 190.609 367.12Z" fill="#C6956D"></path><path d="M196.129 394.71C199.669 403.15 204.779 410.75 211.099 417.15C223.769 429.96 241.269 437.86 260.589 437.86H488.379V296.4L196.129 394.71Z" fill="#DAAB7B"></path><path d="M426.54 381.89C435.249 381.89 442.31 374.83 442.31 366.12C442.31 357.411 435.249 350.35 426.54 350.35C417.83 350.35 410.77 357.411 410.77 366.12C410.77 374.83 417.83 381.89 426.54 381.89Z" fill="black"></path><path d="M378.01 381.89C386.72 381.89 393.78 374.83 393.78 366.12C393.78 357.411 386.72 350.35 378.01 350.35C369.301 350.35 362.24 357.411 362.24 366.12C362.24 374.83 369.301 381.89 378.01 381.89Z" fill="black"></path><path d="M103.68 172.97V275.69H162.37L498.27 172.97H103.68Z" fill="#D33E30"></path><path d="M162.369 275.69H498.269V172.97L162.369 275.69Z" fill="#F04F3F"></path><path d="M452.39 556.45H521.28V625.46H478.46C458.21 625.46 441.77 609.02 441.77 588.77V567.06C441.77 561.2 446.53 556.45 452.38 556.45H452.39Z" fill="#C59C6D"></path><path d="M307.091 368.594L303.712 371.596C301.441 373.613 301.235 377.089 303.252 379.361L439.311 532.553C441.328 534.824 444.804 535.03 447.075 533.013L450.455 530.012C452.726 527.994 452.932 524.518 450.915 522.247L314.856 369.054C312.839 366.783 309.363 366.577 307.091 368.594Z" fill="white"></path><path d="M446.198 527.927L446.191 527.933C445.226 528.834 445.173 530.346 446.074 531.311L456.608 542.6C457.509 543.565 459.021 543.617 459.986 542.717L459.993 542.71C460.958 541.809 461.011 540.297 460.11 539.332L449.576 528.043C448.675 527.078 447.163 527.026 446.198 527.927Z" fill="white"></path><path d="M393.719 570.05L348.256 568.478L350.102 515.07C350.4 506.475 357.616 499.751 366.201 500.048L422.158 501.982C428.014 502.184 432.597 507.106 432.395 512.952L431.645 534.649C430.945 554.887 413.947 570.749 393.709 570.05L393.719 570.05Z" fill="#DAAB7B"></path><path d="M922.56 531.58L597 624L276.98 623.13L361.39 600.53L616.03 532.34L922.56 531.58Z" fill="#414042"></path><path d="M922.559 531.58L616.999 534L361.389 600.53L276.979 623.13L275.359 599.56L614.409 506.77L920.939 508.01L922.559 531.58Z" fill="#58595B"></path><path d="M753.981 627.05L735.461 545.85H755.151L773.881 627.05H753.981Z" fill="black"></path><path d="M977 623.17H0V656H977V623.17Z" fill="black"></path></g><defs><clipPath id="clip0_4955_105"><rect width="977" height="656" fill="white"></rect></clipPath></defs></svg>